Coordinates
version=1
nRows=7
nColumns=40
inDegrees=yes

Units are S.I. units (second, meters, Newtons, ...)
Angles are in degrees.

endheader
time	pelvis_tilt	pelvis_list	pelvis_rotation	pelvis_tx	pelvis_ty	pelvis_tz	hip_flexion_r	hip_adduction_r	hip_rotation_r	knee_angle_r	knee_angle_r_beta	ankle_angle_r	subtalar_angle_r	mtp_angle_r	hip_flexion_l	hip_adduction_l	hip_rotation_l	knee_angle_l	knee_angle_l_beta	ankle_angle_l	subtalar_angle_l	mtp_angle_l	lumbar_extension	lumbar_bending	lumbar_rotation	arm_flex_r	arm_add_r	arm_rot_r	elbow_flex_r	pro_sup_r	wrist_flex_r	wrist_dev_r	arm_flex_l	arm_add_l	arm_rot_l	elbow_flex_l	pro_sup_l	wrist_flex_l	wrist_dev_l
     45.83714286	     -5.98547914	     -4.62586274	     -1.64940558	      1.05776278	      0.93306776	      0.42358630	     41.86279735	     -3.88762666	     -2.52212682	     69.15802984	     69.15802984	      4.23256588	    -18.72575829	     10.88498579	     14.25086707	     -5.37338887	     -4.64859983	     20.38488215	     20.38488215	     14.10403755	     -8.27768078	      0.99812072	    -13.90822632	      5.65829303	      0.81403378	      2.07769764	    -19.86126370	      9.62851636	     30.19821233	     46.82373462	      0.00000000	      0.00000000	      0.48997287	    -13.38987722	    -14.67009803	     75.21194331	     47.60451565	      0.00000000	      0.00000000
     45.84928571	     -5.94965182	     -4.63918147	     -1.83456631	      1.05717015	      0.93322738	      0.42436409	     41.94330174	     -3.89314708	     -2.55492308	     65.87485363	     65.87485363	      4.05860441	    -18.60449333	     10.52210375	     13.51503888	     -5.42660938	     -4.79940611	     20.04335200	     20.04335200	     14.44318454	     -8.19641571	      1.07595281	    -14.06576587	      5.79375546	      0.92434964	      1.23788030	    -20.08519154	      9.02912600	     29.34064473	     46.87052856	      0.00000000	      0.00000000	      0.77404790	    -13.35555859	    -14.69442659	     76.66038981	     47.64404838	      0.00000000	      0.00000000
     45.86142857	     -5.97019453	     -4.61310924	     -2.01974515	      1.05664176	      0.93322651	      0.42520100	     41.82024151	     -3.97352153	     -2.73454819	     62.10459612	     62.10459612	      3.47312116	    -18.46975462	      8.62644677	     12.84919752	     -5.44090652	     -4.95667794	     19.73226139	     19.73226139	     14.80650263	     -8.10843502	      1.22039962	    -14.17537573	      5.87320872	      0.78560521	      0.70993657	    -20.05176011	      7.50641560	     28.36080958	     46.95569925	      0.00000000	      0.00000000	      0.60684858	    -13.53979026	    -14.46327008	     78.70935798	     47.69326915	      0.00000000	      0.00000000
     45.87357143	     -6.03155737	     -4.54515830	     -2.23340723	      1.05622818	      0.93318215	      0.42617499	     41.59278881	     -4.00059938	     -2.91666364	     58.07984693	     58.07984693	      3.53238579	    -18.05180485	      8.74038621	     12.14601866	     -5.40248201	     -5.11969804	     19.27414765	     19.27414765	     15.03981160	     -8.07833796	      1.25201619	    -14.14397354	      5.94301874	      0.83129558	     -0.06396279	    -20.27501590	      7.38173852	     27.93124354	     46.96805009	      0.00000000	      0.00000000	      0.99480303	    -13.42844518	    -14.50769184	     79.48682904	     47.71602987	      0.00000000	      0.00000000
     45.88571429	     -5.97609359	     -4.28077364	     -2.50270253	      1.05606211	      0.93325491	      0.42718733	     40.99300031	     -4.17909566	     -3.09378057	     53.64062252	     53.64062252	      3.14667019	    -17.42151528	      7.08615201	     11.14450281	     -5.11595916	     -5.34828275	     18.54018910	     18.54018910	     15.25596371	     -8.07294900	      1.39172868	    -14.32188576	      5.72100540	      1.24604289	     -0.98937676	    -20.36610220	      6.79299036	     27.42616866	     46.99663792	      0.00000000	      0.00000000	      1.24640148	    -13.30077755	    -14.24175336	     81.57761973	     47.75181885	      0.00000000	      0.00000000
     45.89785714	     -5.95894183	     -4.04361511	     -2.71952229	      1.05602403	      0.93317480	      0.42823807	     40.02523884	     -4.38771716	     -3.60913747	     48.53459213	     48.53459213	      1.54445896	    -16.87083621	      1.85473825	     10.23417332	     -4.84350421	     -5.43444294	     17.89093705	     17.89093705	     15.41249165	     -8.20747887	      1.42567815	    -14.37961215	      5.57910575	      1.24365532	     -1.61117625	    -20.24061861	      4.89626851	     27.20057817	     47.04198745	      0.00000000	      0.00000000	      1.31656512	    -13.35645205	    -13.97735519	     83.03067488	     47.81387460	      0.00000000	      0.00000000
     45.91000000	     -5.88335577	     -3.70505078	     -2.97315328	      1.05620803	      0.93312530	      0.42942806	     39.00322017	     -4.59385164	     -4.11110276	     43.65078859	     43.65078859	      1.69134366	    -14.94095413	      1.64999390	      9.13996544	     -4.45986816	     -5.62892900	     17.04767199	     17.04767199	     15.58468492	     -8.15421710	      1.56103311	    -14.49929862	      5.27991601	      1.48909793	     -2.33106664	    -20.26311728	      4.67481935	     26.99910058	     47.04038423	      0.00000000	      0.00000000	      1.66715303	    -13.21184867	    -13.81534701	     84.32097292	     47.83899800	      0.00000000	      0.00000000
